<?xml version="1.0" encoding="UTF-8" standalone="no"?><!DOCTYPE svg PUBLIC "-//W3C//DTD SVG 1.1//EN" "http://www.w3.org/Graphics/SVG/1.1/DTD/svg11.dtd"><svg width="100%" height="100%" viewBox="0 0 1142 854" version="1.1" xmlns="http://www.w3.org/2000/svg" xmlns:xlink="http://www.w3.org/1999/xlink" xml:space="preserve" xmlns:serif="http://www.serif.com/" style="fill-rule:evenodd;clip-rule:evenodd;stroke-linejoin:round;stroke-miterlimit:2;"><path d="M529.519,203.208c17.944,51.694 17.762,111.118 17.435,158.32c-49.661,33.003 -85.093,88.792 -56.19,173.579c-0.592,-27.286 -12.187,-100.419 56.79,-152.484c2.883,0.199 4.927,2.518 5.334,8.396c1.397,59.34 -4.514,130.359 -12.482,175.392c-12.034,5.881 -29.46,53.201 -39.167,53.201l-0.015,0c-9.627,-17.579 -52.587,-136.602 -32.857,-267.746c21.281,-53.966 60.343,-146.779 61.134,-148.658l0.018,0Zm14.026,383.381c4.985,2.657 3.191,38.165 0.842,54.196c-4.92,33.562 -9.503,70.93 -24.552,84.382c8.108,-38.683 -10.082,-79.155 -13.537,-92.359c24.911,-23.829 27.924,-36.534 37.247,-46.214l0,-0.005Zm44.404,-584.673c0,0 -0.667,-2.213 -3.979,-1.882c-0.393,0.039 -54.357,2.515 -55.498,3.256l0.018,0c-1.368,26.576 1.79,44.695 1.118,56.105c-1.021,17.307 3.951,21.122 -1.31,50.364c-11.916,50.58 -105.491,68.327 -149.405,83.854c-18.528,1.463 -33.439,2.614 -47.247,2.614c-25.241,0 -46.797,-3.846 -80.029,-16.658c-27.725,-10.69 -88.207,-19.422 -102.017,-19.422c-0.472,0 -0.889,0.011 -1.249,0.031c18.874,5.259 92.914,14.389 118.34,37.858c-23.8,2.198 -53.334,11.701 -78.548,11.701c-21.885,0 -40.516,-7.16 -49.317,-32.473l-0.015,0c-1.941,12.548 11.828,25.147 11.576,29.594c-2.317,0.388 -5.191,0.563 -8.498,0.563c-30.919,0 -99.676,-15.325 -105.23,-15.325c-0.066,0 -0.123,0.002 -0.17,0.007c21.243,15.015 94.801,18.1 112.002,26.803c-35.717,24.296 -98.577,22.336 -143.117,24.236c17.11,3.629 58.383,3.076 64.859,4.536c-4.777,2.573 -52.251,22.608 -70.233,33.083c38.225,-8.973 84.381,-33.223 122.004,-39.412l0.014,0c-0.231,0.209 -12.791,11.544 -19.349,20.849c12.034,-6.643 21.538,-12.519 34.68,-19.004c27.022,-13.335 49.367,-20.322 79.996,-20.322c4.555,0 9.294,0.155 14.259,0.466c-37.769,22.668 -56.541,52.252 -52.313,54.276c20.205,-29.031 88.964,-63.89 143.315,-63.89c8.921,0 17.454,0.939 25.321,2.998c0.094,4.932 -5.693,12.836 -17.244,24.833c-9.815,10.195 -15.845,22.484 -34.454,25.634c-6.807,1.152 -14.867,1.537 -22.451,1.537c-13.578,0 -25.632,-1.235 -26.241,-1.522l-0.015,0c1.376,4.014 22.221,11.339 38.943,11.339c4.737,0 9.143,-0.588 12.682,-2.004l0.016,0c-4.258,6.404 -14.152,9.162 -32.253,14.347c-40.454,11.585 -65.703,16.63 -189.861,21.06c6.497,4.436 72.549,8.532 90.888,8.532c1.309,0 2.375,-0.021 3.159,-0.065l0.015,0c-46.192,17.69 -66.341,42.538 -81.525,55.505c-5.774,-1.905 -19.935,-2.974 -34.718,-2.974c-13.363,0 -27.234,0.874 -35.879,2.792c16.374,2.157 48.711,3.449 57.207,11.945c-6.135,20.711 -42.736,36.275 -58.401,48.408c0.262,0.014 0.527,0.021 0.794,0.021c13.627,0 34.2,-17.759 44.114,-19.657l0.014,0c-1.919,6.944 -5.761,24.602 -6.67,28.544c24.16,-53.307 71.769,-93.726 124.069,-113.267c12.598,-4.707 24.173,-7.605 32.295,-7.605c5.085,0 8.817,1.136 10.598,3.675c-19.797,55.946 -68.238,118.943 -117.918,140.635c-16.74,6.284 -43.588,13.069 -65.654,13.809c6.438,3.123 16.154,4.375 26.184,4.375c12.75,0 26.007,-2.023 33.679,-4.796l0.015,0c1.455,7.468 -0.561,21.777 -7.149,39.489c19.843,-21.861 22.49,-34.906 27.801,-45.704c57.384,-28.64 126.565,-146.759 126.565,-146.759c0,0 31.779,-24.129 43.356,-24.129c1.162,0 2.121,0.243 2.823,0.778c-6.077,19.224 -17.278,52.313 -15.328,67.808c5.85,-19.028 14.526,-44.554 26.491,-66.307c16.714,-30.025 42.031,-55.151 73.369,-72.288c26.481,-11.962 59.064,-38.65 94.006,-38.65c7.161,0 14.421,1.12 21.749,3.719c-6.843,24.676 -35.261,81.026 -55.404,96.077c-20.886,14.905 -47.352,24.559 -73.87,25.284c-1.009,0.027 -2.028,0.04 -3.052,0.04c-15.804,0 -33.111,-3.197 -42.404,-6.909l-0.016,0c6.912,10.056 15.686,13.189 31.126,16.221c-5.826,18.569 -25.279,26.716 -36.362,40.186c24.155,-7.858 36.118,-23.142 53.156,-29.986c16.732,-6.722 29.552,-0.95 73.02,-17.998l0.017,0c-30.64,43.214 -59.402,88.048 -106.306,113.511c-6.633,0.498 -14.376,1.239 -22.544,1.239c-9.983,0 -20.602,-1.107 -30.608,-5.116l-0.016,0c4.99,7.064 20.921,11.58 30.986,14.347c0,0 -63.295,11.032 -82.446,11.52c8.206,2.276 25.298,3.458 43.678,3.458c22.39,0 46.692,-1.753 59.179,-5.414l0.016,0c-20.587,37.184 -56.81,54.551 -94.617,72.857c-10.371,-0.424 -27.993,-3.524 -46.15,-3.524c-14.736,0 -29.824,2.042 -41.674,9.214c4.114,-1.274 10.649,-1.858 18.176,-1.858c23.989,0 58.063,5.93 56.014,14.332c-78.569,22.355 -124.406,64.285 -138.249,86.888c11.452,-9.963 28.412,-23.156 34.724,-23.156c0.817,0 1.455,0.221 1.881,0.698c0.787,9.925 4.467,21.13 8.709,26.595c-0.426,-3.926 2.117,-28.646 6.019,-33.109c3.298,-11.606 65.32,-37.059 92.606,-37.377l0.015,0c-10.373,14.207 -24.99,29.565 -28.321,33.013c-7.619,7.886 -20.349,26.481 -24.053,36.025c9.342,-8.855 39.09,-37.373 52.229,-43.052l0.015,0c-3.419,19.888 -18.362,57.614 -30.367,71.517c-14.329,16.599 -19.754,21.467 -25.649,32.451c12.197,-11.048 17.247,-14.164 26.796,-18.712l0.015,0c-0.151,4.648 -3.128,18.025 -4.163,20.637c7.419,-4.802 11.487,-18.794 13.072,-27.843c31.103,-48.015 32.931,-145.593 98.672,-151.736l0.016,0c2.245,25.887 -26.598,40.973 -24.591,71.612c6.22,-9.192 21.559,-27.385 25.659,-28.81l0.016,0c3.146,80.972 -19.814,107.356 -31.305,119.725c-12.028,16.945 -26.604,25.431 -43.744,35.876c1.159,0.237 2.316,0.345 3.466,0.345c9.964,0 19.446,-8.095 25.86,-10.098l0.016,0c-6.714,12.706 -20.899,38.79 -20.599,48.909c15.133,-28.789 40.44,-59.885 51.576,-76.118c6.574,-9.582 13.558,-20.574 13.908,-21.125l0.017,0c3.699,32.013 -20.853,56.575 -9.224,109.142c-3.102,-39.013 33.542,-112.411 29.753,-147.78c0.439,-50.572 -7.685,-82.779 7.512,-129.696c25.758,-38.31 79.791,-102.523 89.785,-108.381l0.018,0c-15.391,91.46 -0.18,148.851 -7.051,205.958c-4.366,25.769 -37.063,64.17 -79.403,102.729c0,0 36.507,-25.255 46.371,-25.597l0.016,0c-0.789,6.474 -3.067,17.314 -3.174,27.826c10.388,-17.91 27.735,-62.325 37.119,-62.325c0.04,0 0.08,0 0.119,0.002c-0.162,53.503 10.015,89.242 13.498,114.508c-2.373,9.035 -17.394,19.148 -15.224,51.375c8.981,-29.059 14.156,-26.512 18.676,-31.904c11.602,4.075 22.191,52.992 25.485,61.716c4.651,-5.697 -8.476,-74.621 -14.955,-93.985c-13.099,-32.235 -16.77,-221.89 -7.045,-301.898l0.017,0c6.039,71.331 26.433,146.446 49.681,199.324c-13.799,16.512 -32.086,25.511 -36.912,58.615c7.44,-16.733 15.396,-23.602 20.8,-25.271l0.018,0c-0.152,6.994 1.587,14.342 4.935,23.189c0.219,-21.431 6.426,-34.788 17.431,-37.484l0.018,0c31.551,59.941 -10.311,104.72 2.537,136.039c2.281,-8.952 11.312,-32.699 18.597,-35.686c0.275,5.668 10.429,13.854 13.723,14.668c-12.658,-23.418 0.149,-35.708 7.809,-35.708c0.616,0 1.199,0.079 1.732,0.239c12.875,28.456 23.197,72.942 4.867,122.989c6.274,-10.721 21.141,-42.259 19.803,-51.052l0.019,0c4.53,9.225 12.876,13.758 23.392,19.721c-16.415,-10.641 -22.871,-39.442 -22.283,-56.553l0.018,0c10.898,0.558 50.913,36.747 52.538,58.965c1.116,-8.347 -8.345,-28.15 -7.91,-34.879c0.292,-0.115 0.629,-0.169 1.005,-0.169c5.048,0 17.012,9.81 20.228,14.446c-9.37,-26.089 -40.026,-23.313 -72.097,-64.308c-3.968,-7.757 -8.245,-26.991 1.821,-33.57c3.378,-0.665 6.552,-0.973 9.549,-0.973c34.661,0 45.7,41.258 75.451,49.609c-11.378,-10.089 -29.12,-32.798 -27.36,-37.538l0.019,0c2.854,0.689 19.376,5.967 22.145,7.213c-26.64,-25.21 -60.263,-42.136 -78.312,-44.43c-4.541,-11.595 1.906,-37.129 4,-70.073c12.925,8.765 37.324,26.74 53.697,56.191l0.017,0c2.417,-27.053 -39.74,-68.2 -53.141,-83.228c2.161,-24.992 1.879,-39.433 7.321,-64.007c25.404,13.114 51.5,26.279 70.33,55.204c25.017,28.552 24.255,80.603 23.534,109.675c11.312,-40.874 -1.7,-106.012 -1.804,-106.532l0.02,0c0.848,0.131 27.999,4.411 42.673,16.27c-4.52,-16.157 -42.011,-35.465 -56.371,-42.504c-10.746,-5.264 -44.28,-34.406 -72.05,-58.161c-3.808,-18.433 -2.673,-46.757 1.501,-66.383c0.399,-0.067 0.797,-0.121 1.197,-0.138c24.286,19.451 64.584,64.019 81.407,89.117c-2.817,8.035 9.797,37.735 14.755,40.343c-2.648,-9.508 -6.277,-30.541 -2.082,-31.609c0.302,-0.077 0.624,-0.116 0.968,-0.116c3.516,0 9.264,4.127 17.742,14.759c33.294,39.658 35.39,96.671 38.852,145.711c1.817,25.74 -12.088,62.425 11.207,79.292c-3.189,-23.897 -4.446,-33.141 -1.169,-44.191l0.02,0c1.521,2.375 9.689,13.417 22.666,13.417c2.501,0 5.181,-0.411 8.027,-1.372c-24.657,-6.016 -28.374,-52.775 -29.059,-70.713c-6.814,-116.417 -46.015,-146.492 -113.441,-209.664c-61.781,-57.521 -69.558,-157.5 -62.749,-235.208l0.019,0c25.696,1.308 70.354,70.278 82.787,95.658c0.545,22.216 3.986,59.382 5.803,88.734c1.263,20.406 -0.018,38.305 -3.67,57.97c7.485,-10.08 10.962,-20.223 14.851,-25.354c3.264,5.347 9.101,25.788 23.429,39.807c-21.921,-56.136 -20.046,-82.474 -18.694,-123.767l0.019,0c27.095,45.047 70.498,104.709 105.407,144.236c14.513,47.511 23.479,106.881 19.676,133.258c-5.083,35.251 -10.686,37.095 1.21,86.208c0.252,-32.059 5.017,-62.262 11.246,-64.136c8.988,12.789 18.645,40.726 28.447,92.852c10.309,-32.453 -12.613,-97.626 -22.836,-135.754c0.047,-0.007 0.096,-0.011 0.149,-0.011c3.003,0 15.707,11.983 27.536,25.445c-3.442,-13.894 -22.563,-43.458 -32.285,-54.186c-5.455,-15.444 -8.697,-53.54 -6.359,-68.533l0.021,0c11.862,2.336 39.859,27.429 56.605,47.13c16.755,19.716 26.843,65.743 34.072,96.841c3.691,-12.573 -3.056,-45.625 -1.546,-54.745l0.022,0c9.463,6.938 36.1,46.235 44.289,66.101l0.01,0c3.259,-27.616 -29.817,-83.173 -55.588,-110.395c0.405,-0.154 0.961,-0.232 1.655,-0.232c4.745,0 15.959,3.671 29.71,12.332c-2.13,-7.606 -21.474,-18.368 -41.688,-33.134c-16.197,-11.833 -31.652,-22.025 -55.905,-42.626c-24.251,-20.599 -72.816,-59.649 -85.135,-96.17l0.02,0c20.615,5.885 43.247,14.256 63.602,24.922c3.902,12.96 20.765,21.403 52.327,21.403c8.112,0 17.194,-0.558 27.276,-1.739c-31.92,-4.053 -62.784,-15.099 -60.218,-25.342l0.021,0c0.846,0.107 1.77,0.157 2.757,0.157c11.359,0 30.995,-6.606 34.882,-7.948l-0.021,0c-0.322,0.015 -0.688,0.022 -1.095,0.022c-8.887,0 -37.371,-3.563 -54.595,-6.668c-51.922,-9.363 -98.954,-52.562 -112.686,-83.5c-18.994,-42.796 -51,-93.025 -77.787,-128.802l0.019,0c48.166,26.622 83.406,14.883 133.292,31.929c-4.032,33.671 15.54,47.68 30.68,70.695c9.879,15.021 11.375,27.062 9.698,47.969c9.922,-10.877 14.384,-24.676 12.887,-26.917l0.021,0c7.671,5.704 24.313,26.985 37.489,62.952c-1.682,-36.724 -19.905,-80.277 -43.944,-94.667l0.021,0c2.095,0.549 4.94,1.128 8.043,1.128c5.082,0 10.853,-1.554 15.14,-7.34l-0.021,0c-0.802,0.032 -1.591,0.048 -2.367,0.048c-33.975,0 -44.04,-30.369 -42.898,-45.371c0.689,-0.586 1.598,-0.858 2.695,-0.858c12.937,0 51.998,37.842 65.676,43.371c45.323,26.648 91.125,56.98 106.496,110.163c8.044,27.836 13.409,60.795 12.638,89.205c-1.108,40.851 -7.674,49.476 6.792,92.346c1.965,-32.028 1.03,-61.394 8.518,-66.325c5.179,16.814 22.515,64.398 43.432,83.045c-19.026,-47.128 -37.298,-95.207 -41.139,-136.947l0.022,0c15.918,16.934 41.022,42.124 56.853,42.124c0.098,0 0.196,-0.001 0.293,-0.003c-29.572,-25.134 -64.104,-81.367 -73.133,-110.302c-9.024,-28.922 -12.389,-37.473 -15.636,-49.977l0.022,0c21.072,10.099 43.884,12.78 92.267,44.365c8.85,20.958 23.395,37.675 43.007,51.358c-6.225,-14.032 -23.088,-38.485 -15.714,-42.626l0.023,0c14.691,2.582 55.043,10.307 75.292,39.156c3.653,-43.314 -107.504,-64.393 -123.981,-83.756c3.562,-3.036 25.62,-0.271 33.804,-7.052c-85.662,-6.653 -127.618,-29.304 -153.465,-46.935c-40.18,-27.411 -80.825,-46.504 -107.761,-72.751c25.649,-2.221 32.596,-4.79 61.63,-5.89c2.144,-0.149 4.252,-0.22 6.323,-0.22c40.139,0 66.403,26.815 78.495,37.363c-3.948,-15.725 -18.348,-32.484 -25.095,-37.958c3.705,-0.307 7.378,-0.454 11.016,-0.454c32.399,0 62.033,11.729 86.553,27.69c26.313,11.664 41.77,55.706 67.936,59.202c-17.48,-18.344 -28.966,-37.439 -30.758,-47.649l0.023,0c34.457,1.001 89.665,37.153 101.733,51.326c-21.354,-44.443 -88.393,-60.635 -133.746,-88.006c11.188,-11.522 41.678,-20.655 71.129,-20.655c1.482,0 2.96,0.023 4.433,0.071c-11.728,-1.673 -22.363,-2.344 -32.05,-2.344c-39.332,0 -63.033,11.062 -80.783,11.062c-7.74,0 -14.349,-2.104 -20.629,-8.146c8.574,-8.267 40.557,-21.104 66.755,-24.193c-1.677,-0.031 -3.321,-0.047 -4.931,-0.047c-63.775,0 -76.38,24.106 -124.172,24.106c-0.38,0 -0.763,-0.002 -1.147,-0.005c-3.099,-0.025 -6.238,-0.035 -9.414,-0.035c-20.697,0 -42.938,0.456 -65.7,0.456c-55.659,0 -114.433,-2.73 -161.371,-21.543c-43.663,-25.215 -52.992,-82.85 -58.535,-126.174l0.009,-0.009c-0.054,-0.424 -0.102,-0.875 -0.156,-1.301c-1.355,-10.726 -2.373,-16.994 -3.166,-28.374Z" style="fill:url(#_Linear1);fill-rule:nonzero;"/><defs><linearGradient id="_Linear1" x1="0" y1="0" x2="1" y2="0" gradientUnits="userSpaceOnUse" gradientTransform="matrix(9.24354,931.467,-696.114,6.90798,561.468,-26.4618)"><stop offset="0" style="stop-color:#44302b;stop-opacity:1"/><stop offset="1" style="stop-color:#291d20;stop-opacity:1"/></linearGradient></defs></svg>